<svg id="Layer_1" enable-background="new 0 0 512 512" height="512" viewBox="0 0 512 512" width="512" xmlns="http://www.w3.org/2000/svg"><g><path d="m412 504.5h-312c-11.046 0-20-8.954-20-20v-457c0-11.046 8.954-20 20-20h312c11.046 0 20 8.954 20 20v457c0 11.046-8.954 20-20 20z" fill="#f1f1f1"/><path d="m110 226.814v-180.628c0-4.797 3.889-8.686 8.686-8.686h136.628c4.797 0 8.686 3.889 8.686 8.686v180.628c0 4.797-3.889 8.686-8.686 8.686h-136.628c-4.797 0-8.686-3.889-8.686-8.686z" fill="#42a5f5"/><path d="m412 7.5h-29.981c11.035 0 19.981 8.946 19.981 19.981v457.039c0 11.035-8.946 19.981-19.981 19.981h29.981c11.046 0 20-8.954 20-20v-457c0-11.047-8.954-20.001-20-20.001z" fill="#e2e2e2"/><path d="m412 504.5h-312c-11.046 0-20-8.954-20-20v-32h352v32c0 11.046-8.954 20-20 20z" fill="#7be492"/><path d="m402 452.5v32c0 11.046-8.954 20-20 20h30c11.046 0 20-8.954 20-20v-32z" fill="#45d987"/><path d="m236.376 235.5h-98.752v-38.48c0-16.416 13.308-29.723 29.723-29.723h39.305c16.416 0 29.723 13.308 29.723 29.723v38.48z" fill="#7be492"/><path d="m206.653 167.297h-30c16.416 0 29.723 13.308 29.723 29.723v38.48h30v-38.48c0-16.416-13.308-29.723-29.723-29.723z" fill="#45d987"/><path d="m172 141.297h30v26h-30z" fill="#e8916f"/><path d="m158.4 117.399v-21.205c0-14.907 12.085-26.992 26.992-26.992h3.217c14.907 0 26.992 12.085 26.992 26.992v21.205c0 15.795-12.805 28.6-28.6 28.6-15.796 0-28.601-12.804-28.601-28.6z" fill="#ebad88"/><g><path d="m80 390.998c4.143 0 7.5-3.358 7.5-7.5v-355.998c0-6.893 5.607-12.5 12.5-12.5h252.387c4.143 0 7.5-3.358 7.5-7.5s-3.357-7.5-7.5-7.5h-252.387c-15.163 0-27.5 12.336-27.5 27.5v355.998c0 4.142 3.357 7.5 7.5 7.5z"/><path d="m412 0h-27.763c-4.143 0-7.5 3.358-7.5 7.5s3.357 7.5 7.5 7.5h27.763c6.893 0 12.5 5.607 12.5 12.5v417.5h-337v-29.316c0-4.142-3.357-7.5-7.5-7.5s-7.5 3.358-7.5 7.5v68.816c0 15.164 12.337 27.5 27.5 27.5h252.387c4.143 0 7.5-3.358 7.5-7.5s-3.357-7.5-7.5-7.5h-252.387c-6.893 0-12.5-5.607-12.5-12.5v-24.5h337v24.5c0 6.893-5.607 12.5-12.5 12.5h-27.5c-4.143 0-7.5 3.358-7.5 7.5s3.357 7.5 7.5 7.5h27.5c15.163 0 27.5-12.336 27.5-27.5v-457c0-15.164-12.337-27.5-27.5-27.5z"/><path d="m302.773 133.308c-4.143 0-7.5 3.358-7.5 7.5s3.357 7.5 7.5 7.5h55.708c4.143 0 7.5-3.358 7.5-7.5s-3.357-7.5-7.5-7.5z"/><path d="m402 167.115h-99.227c-4.143 0-7.5 3.358-7.5 7.5s3.357 7.5 7.5 7.5h99.227c4.143 0 7.5-3.358 7.5-7.5s-3.357-7.5-7.5-7.5z"/><path d="m409.5 208.423c0-4.142-3.357-7.5-7.5-7.5h-99.227c-4.143 0-7.5 3.358-7.5 7.5s3.357 7.5 7.5 7.5h99.227c4.143 0 7.5-3.358 7.5-7.5z"/><path d="m383.692 276.885h-225.293c-4.143 0-7.5 3.358-7.5 7.5s3.357 7.5 7.5 7.5h225.293c4.143 0 7.5-3.358 7.5-7.5s-3.357-7.5-7.5-7.5z"/><path d="m383.692 314.115h-255.384c-4.143 0-7.5 3.358-7.5 7.5s3.357 7.5 7.5 7.5h255.385c4.143 0 7.5-3.358 7.5-7.5s-3.358-7.5-7.501-7.5z"/><path d="m383.692 351.346h-255.384c-4.143 0-7.5 3.358-7.5 7.5s3.357 7.5 7.5 7.5h255.385c4.143 0 7.5-3.358 7.5-7.5s-3.358-7.5-7.501-7.5z"/><path d="m302.773 70.5h46.523c4.143 0 7.5-3.358 7.5-7.5s-3.357-7.5-7.5-7.5h-46.523c-4.143 0-7.5 3.358-7.5 7.5s3.358 7.5 7.5 7.5z"/><path d="m382.053 407.577h-79.279c-4.143 0-7.5 3.358-7.5 7.5s3.357 7.5 7.5 7.5h79.279c4.143 0 7.5-3.358 7.5-7.5s-3.358-7.5-7.5-7.5z"/><path d="m255.314 243c8.925 0 16.186-7.261 16.186-16.186v-180.628c0-8.925-7.261-16.186-16.186-16.186h-136.628c-8.925 0-16.186 7.261-16.186 16.186v180.628c0 8.925 7.261 16.186 16.186 16.186zm-110.19-15v-30.98c0-12.254 9.97-22.224 22.224-22.224h4.584c.023 0 .045.003.068.003h30c.023 0 .045-.003.068-.003h4.584c12.254 0 22.224 9.97 22.224 22.224v30.98zm62.977-110.601c0 11.635-9.466 21.1-21.101 21.1s-21.101-9.465-21.101-21.1v-21.205c0-10.748 8.744-19.492 19.492-19.492h3.217c10.748 0 19.492 8.744 19.492 19.492v21.205zm-21.101 36.1c2.572 0 5.079-.275 7.5-.789v7.086h-15v-7.086c2.421.514 4.928.789 7.5.789zm-69.5 73.315v-180.628c0-.654.532-1.186 1.186-1.186h136.629c.653 0 1.186.532 1.186 1.186v180.628c0 .654-.532 1.186-1.186 1.186h-11.438v-30.98c0-19.566-15.177-35.643-34.376-37.104v-14.317c8.281-6.62 13.601-16.798 13.601-28.2v-21.205c0-19.019-15.473-34.492-34.492-34.492h-3.217c-19.02 0-34.492 15.473-34.492 34.492v21.205c0 11.402 5.319 21.58 13.601 28.2v14.317c-19.198 1.461-34.376 17.537-34.376 37.104v30.98h-11.438c-.656 0-1.188-.532-1.188-1.186z"/></g></g></svg>